<svg width="41" height="60" viewBox="0 0 41 60" fill="none" xmlns="http://www.w3.org/2000/svg"><g clip-path="url(#clip0_79_10901)"><path fill-rule="evenodd" clip-rule="evenodd" d="M17.653 3.161c2.624 0 5.113.569 7.347 1.587 3.62.75 7.3.616 11.043-.4-2.642 4.208-3.962 6.323-3.96 6.343 1.413 2.045 3.08 5.34 3.08 9.714 0 9.524-7.84 17.244-17.51 17.244-9.671 0-17.51-7.72-17.51-17.244 0-9.523 7.839-17.244 17.51-17.244zm0 6.61c-5.964 0-10.798 4.761-10.798 10.634S11.689 31.04 17.653 31.04c5.963 0 10.798-4.76 10.798-10.634 0-5.873-4.835-10.633-10.798-10.633v-.002zm9.63 29.603c4.352 0 7.88 3.474 7.88 7.76v1.149c0 4.286-3.528 7.76-7.88 7.76H7.864l3.8-6.114h15.76c1.212 0 2.194-.967 2.194-2.16s-.982-2.16-2.193-2.16h-12.93l3.725-6.235h9.065z" fill="#E1C6C0"/><path d="M39.975 1.017L4.1 58.983" stroke="#fff" stroke-linecap="round"/></g><defs><clipPath id="clip0_79_10901"><path fill="#fff" d="M0 0h41v60H0z"/></clipPath></defs></svg>