<svg width="41" height="60" viewBox="0 0 41 60" fill="none" xmlns="http://www.w3.org/2000/svg">
<g clip-path="url(#clip0_79_10901)">
<path fill-rule="evenodd" clip-rule="evenodd" d="M17.6526 3.16101C20.2766 3.16101 22.7656 3.73001 24.9996 4.74801C28.6196 5.49801 32.2996 5.36401 36.0426 4.34801C33.4006 8.55601 32.0806 10.671 32.0826 10.691C33.4956 12.736 35.1626 16.031 35.1626 20.405C35.1626 29.929 27.3226 37.649 17.6526 37.649C7.98158 37.649 0.142578 29.929 0.142578 20.405C0.142578 10.882 7.98158 3.16101 17.6526 3.16101ZM17.6526 9.77101C11.6886 9.77101 6.85458 14.532 6.85458 20.405C6.85458 26.278 11.6886 31.04 17.6526 31.04C23.6156 31.04 28.4506 26.28 28.4506 20.406C28.4506 14.533 23.6156 9.77301 17.6526 9.77301V9.77101ZM27.2836 39.374C31.6346 39.374 35.1636 42.848 35.1636 47.134V48.283C35.1636 52.569 31.6346 56.043 27.2836 56.043H7.86258L11.6626 49.929H27.4226C28.6346 49.929 29.6166 48.962 29.6166 47.769C29.6166 46.576 28.6346 45.609 27.4236 45.609H14.4936L18.2186 39.374H27.2836Z" fill="#E1C6C0"/>
<path d="M39.9746 1.01697L4.09961 58.983" stroke="white" stroke-linecap="round"/>
</g>
<defs>
<clipPath id="clip0_79_10901">
<rect width="41" height="60" fill="white"/>
</clipPath>
</defs>
</svg>
